<svg width="423" height="58" viewBox="0 0 423 58" fill="none" xmlns="http://www.w3.org/2000/svg">
<path d="M101.658 6.68762C106.335 6.68762 110.108 8.0336 112.976 10.7256C115.845 13.4175 117.28 17.0035 117.28 21.4836C117.28 25.9636 115.865 29.5398 113.035 32.2121C110.206 34.8845 106.414 36.2206 101.658 36.2206H90.3993V48.246C90.3993 48.7962 90.193 49.2776 89.7803 49.6903C89.3677 50.1029 88.8863 50.3092 88.3361 50.3092H83.856C83.3058 50.3092 82.8244 50.1029 82.4118 49.6903C81.9992 49.2776 81.7928 48.7962 81.7928 48.246V29.9721C81.7928 29.4219 81.9992 28.9405 82.4118 28.5279C82.8244 28.1153 83.3058 27.9089 83.856 27.9089H101.305C103.938 27.9089 105.824 27.3391 106.964 26.1994C108.103 25.1777 108.673 23.6254 108.673 21.5425C108.673 19.4597 108.084 17.8583 106.905 16.7383C105.726 15.6183 103.859 15.0582 101.305 15.0582H83.856C83.3058 15.0582 82.8244 14.8519 82.4118 14.4393C81.9992 14.0267 81.7928 13.5452 81.7928 12.9951V8.7508C81.7928 8.20062 81.9992 7.71921 82.4118 7.30657C82.8244 6.89394 83.3058 6.68762 83.856 6.68762H101.658ZM156.445 33.509L165.346 47.126C165.778 47.8334 165.798 48.5408 165.405 49.2481C165.248 49.5625 165.002 49.818 164.668 50.0145C164.334 50.211 163.99 50.3092 163.636 50.3092H158.272C157.918 50.3092 157.584 50.2208 157.27 50.0439C156.956 49.8671 156.72 49.6411 156.563 49.366L147.603 35.1595H137.11V48.246C137.11 48.7962 136.903 49.2776 136.491 49.6903C136.078 50.1029 135.597 50.3092 135.047 50.3092H130.567C130.016 50.3092 129.535 50.1029 129.122 49.6903C128.71 49.2776 128.503 48.7962 128.503 48.246V28.8521C128.503 28.3019 128.71 27.8205 129.122 27.4079C129.535 26.9952 130.016 26.7889 130.567 26.7889H148.723C152.181 26.7889 154.48 25.8064 155.619 23.8415C156.012 23.2127 156.209 22.3089 156.209 21.1299C156.209 19.2829 155.6 17.8288 154.382 16.7677C153.124 15.6281 151.316 15.0582 148.958 15.0582H130.567C130.016 15.0582 129.535 14.8519 129.122 14.4393C128.71 14.0267 128.503 13.5452 128.503 12.9951V8.7508C128.503 8.20062 128.71 7.71921 129.122 7.30657C129.535 6.89394 130.016 6.68762 130.567 6.68762H149.489C154.087 6.68762 157.761 7.98448 160.512 10.5782C163.381 13.1719 164.815 16.6891 164.815 21.1299C164.815 23.9987 164.187 26.4451 162.929 28.4689C161.671 30.4928 159.844 32.0353 157.447 33.0964L156.445 33.509ZM194.785 7.1592C195.256 7.55219 195.492 8.08272 195.492 8.7508V13.1719C195.492 13.6828 195.345 14.1249 195.05 14.4982C194.755 14.8716 194.352 15.1172 193.841 15.2351C191.326 15.746 189.185 16.9446 187.416 18.8309C185.019 21.346 183.82 24.6177 183.82 28.6458C183.82 32.6739 185.019 35.9652 187.416 38.5196C189.185 40.3666 191.326 41.5456 193.841 42.0565C194.352 42.1744 194.755 42.42 195.05 42.7933C195.345 43.1667 195.492 43.6088 195.492 44.1197V48.5408C195.492 49.1696 195.256 49.7001 194.785 50.1324C194.352 50.4468 193.9 50.604 193.429 50.604H193.075C188.516 49.8573 184.606 47.7941 181.344 44.4144C177.257 40.2094 175.214 34.9729 175.214 28.7047C175.214 22.4366 177.257 17.1607 181.344 12.8772C184.528 9.57607 188.438 7.53254 193.075 6.74657C193.704 6.62867 194.274 6.76622 194.785 7.1592ZM213.294 12.8772C217.381 17.1607 219.425 22.4366 219.425 28.7047C219.425 34.9729 217.381 40.2094 213.294 44.4144C210.032 47.7941 206.122 49.8573 201.564 50.604H201.21C200.738 50.604 200.286 50.4468 199.854 50.1324C199.383 49.7001 199.147 49.1696 199.147 48.5408V44.1197C199.147 43.6088 199.294 43.1667 199.589 42.7933C199.884 42.42 200.286 42.1744 200.797 42.0565C203.312 41.5456 205.454 40.3666 207.223 38.5196C209.62 35.9652 210.818 32.6739 210.818 28.6458C210.818 24.6177 209.62 21.346 207.223 18.8309C205.454 16.9446 203.312 15.746 200.797 15.2351C200.286 15.1172 199.884 14.8716 199.589 14.4982C199.294 14.1249 199.147 13.6828 199.147 13.1719V8.7508C199.147 8.08272 199.392 7.55219 199.884 7.1592C200.375 6.76622 200.935 6.62867 201.564 6.74657C206.201 7.53254 210.111 9.57607 213.294 12.8772ZM251.575 6.68762C256.252 6.68762 260.024 8.0336 262.893 10.7256C265.762 13.4175 267.196 17.0035 267.196 21.4836C267.196 25.9636 265.782 29.5398 262.952 32.2121C260.123 34.8845 256.33 36.2206 251.575 36.2206H240.316V48.246C240.316 48.7962 240.11 49.2776 239.697 49.6903C239.285 50.1029 238.803 50.3092 238.253 50.3092H233.773C233.223 50.3092 232.741 50.1029 232.329 49.6903C231.916 49.2776 231.71 48.7962 231.71 48.246V29.9721C231.71 29.4219 231.916 28.9405 232.329 28.5279C232.741 28.1153 233.223 27.9089 233.773 27.9089H251.221C253.855 27.9089 255.741 27.3391 256.881 26.1994C258.02 25.1777 258.59 23.6254 258.59 21.5425C258.59 19.4597 258.001 17.8583 256.822 16.7383C255.643 15.6183 253.776 15.0582 251.221 15.0582H233.773C233.223 15.0582 232.741 14.8519 232.329 14.4393C231.916 14.0267 231.71 13.5452 231.71 12.9951V8.7508C231.71 8.20062 231.916 7.71921 232.329 7.30657C232.741 6.89394 233.223 6.68762 233.773 6.68762H251.575ZM304.77 8.22027C307.167 9.12414 309.329 10.5782 311.254 12.5824C315.381 16.7481 317.444 22.0632 317.444 28.5279C317.444 34.9925 315.381 40.3273 311.254 44.5323C309.329 46.5365 307.167 47.9906 304.77 48.8945C302.294 49.9162 299.759 50.4271 297.166 50.4271H280.483C279.933 50.4271 279.452 50.2208 279.039 49.8082C278.626 49.3955 278.42 48.9141 278.42 48.3639V44.1197C278.42 43.5302 278.626 43.0291 279.039 42.6165C279.452 42.2038 279.933 41.9975 280.483 41.9975H296.989C300.486 41.9975 303.326 40.7203 305.507 38.1659C307.688 35.6115 308.778 32.4086 308.778 28.5574C308.778 24.7061 307.688 21.5032 305.507 18.9488C303.326 16.3944 300.486 15.1172 296.989 15.1172H280.483C279.933 15.1172 279.452 14.9109 279.039 14.4982C278.626 14.0856 278.42 13.5845 278.42 12.9951V8.7508C278.42 8.20062 278.626 7.71921 279.039 7.30657C279.452 6.89394 279.933 6.68762 280.483 6.68762H297.166C299.759 6.68762 302.294 7.1985 304.77 8.22027ZM346.882 7.1592C347.354 7.55219 347.59 8.08272 347.59 8.7508V13.1719C347.59 13.6828 347.442 14.1249 347.148 14.4982C346.853 14.8716 346.45 15.1172 345.939 15.2351C343.424 15.746 341.282 16.9446 339.514 18.8309C337.117 21.346 335.918 24.6177 335.918 28.6458C335.918 32.6739 337.117 35.9652 339.514 38.5196C341.282 40.3666 343.424 41.5456 345.939 42.0565C346.45 42.1744 346.853 42.42 347.148 42.7933C347.442 43.1667 347.59 43.6088 347.59 44.1197V48.5408C347.59 49.1696 347.354 49.7001 346.882 50.1324C346.45 50.4468 345.998 50.604 345.527 50.604H345.173C340.614 49.8573 336.704 47.7941 333.442 44.4144C329.355 40.2094 327.312 34.9729 327.312 28.7047C327.312 22.4366 329.355 17.1607 333.442 12.8772C336.626 9.57607 340.536 7.53254 345.173 6.74657C345.802 6.62867 346.372 6.76622 346.882 7.1592ZM365.392 12.8772C369.479 17.1607 371.523 22.4366 371.523 28.7047C371.523 34.9729 369.479 40.2094 365.392 44.4144C362.13 47.7941 358.22 49.8573 353.661 50.604H353.308C352.836 50.604 352.384 50.4468 351.952 50.1324C351.48 49.7001 351.245 49.1696 351.245 48.5408V44.1197C351.245 43.6088 351.392 43.1667 351.687 42.7933C351.982 42.42 352.384 42.1744 352.895 42.0565C355.41 41.5456 357.552 40.3666 359.321 38.5196C361.718 35.9652 362.916 32.6739 362.916 28.6458C362.916 24.6177 361.718 21.346 359.321 18.8309C357.552 16.9446 355.41 15.746 352.895 15.2351C352.384 15.1172 351.982 14.8716 351.687 14.4982C351.392 14.1249 351.245 13.6828 351.245 13.1719V8.7508C351.245 8.08272 351.49 7.55219 351.981 7.1592C352.473 6.76622 353.033 6.62867 353.661 6.74657C358.299 7.53254 362.209 9.57607 365.392 12.8772ZM405.559 15.1172C405.049 15.0386 404.626 14.8028 404.292 14.4098C403.958 14.0168 403.791 13.5649 403.791 13.054V8.7508C403.791 8.08272 404.027 7.55219 404.498 7.1592C404.97 6.76622 405.52 6.60902 406.149 6.68762C409.529 7.2378 412.535 8.43641 415.168 10.2835C418.587 12.7593 421.004 16.0407 422.419 20.1278C422.654 20.7959 422.576 21.4246 422.183 22.0141C421.79 22.6036 421.22 22.8983 420.473 22.8983H415.757C415.325 22.8983 414.932 22.7903 414.578 22.5741C414.225 22.358 413.969 22.0534 413.812 21.6604C412.948 19.6169 411.631 17.986 409.863 16.7677C408.487 15.9032 407.053 15.353 405.559 15.1172ZM420.473 34.688C421.22 34.688 421.79 34.9827 422.183 35.5722C422.576 36.1617 422.654 36.7904 422.419 37.4585C421.004 41.5456 418.587 44.827 415.168 47.3029C412.535 49.1499 409.529 50.3485 406.149 50.8987H405.854C405.304 50.8987 404.852 50.7218 404.498 50.3682C404.027 50.0145 403.791 49.5036 403.791 48.8355V44.5323C403.791 44.0214 403.948 43.5695 404.263 43.1765C404.577 42.7835 404.99 42.5477 405.5 42.4691C407.151 42.2333 408.605 41.6831 409.863 40.8186C411.631 39.6003 412.948 37.9694 413.812 35.9259C413.969 35.5329 414.225 35.2283 414.578 35.0122C414.932 34.796 415.325 34.688 415.757 34.688H420.473ZM399.37 7.39499C399.881 7.78798 400.136 8.31852 400.136 8.98659V13.5845C400.136 14.0168 399.989 14.4196 399.694 14.793C399.399 15.1663 399.036 15.4316 398.604 15.5888C398.053 15.7067 397.621 15.8442 397.307 16.0014C395.735 16.7088 394.399 17.6716 393.298 18.8899C391.058 21.405 389.938 24.6963 389.938 28.7637C389.938 32.8311 391.058 36.142 393.298 38.6964C394.674 40.2684 396.442 41.3687 398.604 41.9975C399.036 42.1154 399.399 42.361 399.694 42.7344C399.989 43.1077 400.136 43.5105 400.136 43.9428V48.5997C400.136 49.2678 399.881 49.7983 399.37 50.1913C399.016 50.5057 398.564 50.6629 398.014 50.6629H397.601C393.396 49.759 389.84 47.7155 386.932 44.5323C383.198 40.3273 381.332 35.081 381.332 28.7932C381.332 22.5054 383.198 17.259 386.932 13.054C389.84 9.83152 393.396 7.80763 397.601 6.98236C398.23 6.82516 398.82 6.96271 399.37 7.39499Z" fill="#4154F1"/>
<path d="M11.3229 51.8285C12.3439 52.6126 13.4189 53.3273 14.54 53.9707L28.8964 39.6137L43.2515 53.9701C44.374 53.3266 45.4483 52.6119 46.4693 51.8279L28.8964 34.255L11.3229 51.8285Z" fill="#4154F1"/>
<path d="M5.96487 11.3235L23.5384 28.8971L5.96487 46.4706C6.73673 47.4762 7.56895 48.4349 8.46409 49.33L28.8964 28.8971L8.46409 8.46472C7.5683 9.35923 6.73673 10.3173 5.96487 11.3235Z" fill="#4154F1"/>
<path d="M46.4699 5.96491C45.4496 5.1815 44.374 4.46679 43.2528 3.82401L28.8964 18.1798L14.5394 3.82336C13.4182 4.46679 12.3433 5.18214 11.3229 5.96491L28.8964 23.5391L46.4699 5.96491Z" fill="#4154F1"/>
<path d="M34.2545 28.8971L51.8287 11.323C51.0562 10.3174 50.2246 9.35929 49.3288 8.4635L28.8965 28.8971L49.3288 49.3301C50.2239 48.4343 51.0555 47.4762 51.8287 46.4706L34.2545 28.8971Z" fill="#4154F1"/>
<path d="M53.9702 14.54L39.6125 28.8971L53.9702 43.2547C56.3975 39.0237 57.7929 34.126 57.7929 28.8971C57.7929 23.6694 56.3975 18.7705 53.9702 14.54Z" fill="#4154F1"/>
<path d="M39.6125 55.6904L28.8964 44.9718L18.1804 55.6904H18.0744C21.418 57.0422 25.0686 57.7922 28.8964 57.7922C32.7236 57.7922 36.3748 57.0422 39.7178 55.6904H39.6125Z" fill="#4154F1"/>
<path d="M18.1803 28.897L3.82332 14.5406C1.39538 18.7704 0 23.6693 0 28.897C0 34.126 1.39473 39.0236 3.82332 43.2534L18.1803 28.897Z" fill="#4154F1"/>
<path d="M18.1804 2.10494L28.8964 12.821L39.6125 2.10494H39.7217C36.3774 0.751949 32.7255 0 28.8964 0C25.0667 0 21.4161 0.751949 18.0712 2.1043L18.1804 2.10494Z" fill="#4154F1"/>
</svg>
