<svg width="12" height="12" viewBox="0 0 12 12" fill="none" xmlns="http://www.w3.org/2000/svg">
<path d="M5.18335 7.04984L3.92919 5.79567C3.82224 5.68873 3.68613 5.63525 3.52085 5.63525C3.35558 5.63525 3.21946 5.68873 3.11252 5.79567C3.00558 5.90262 2.9521 6.03873 2.9521 6.204C2.9521 6.36928 3.00558 6.50539 3.11252 6.61234L4.77502 8.27484C4.89169 8.3915 5.0278 8.44984 5.18335 8.44984C5.33891 8.44984 5.47502 8.3915 5.59169 8.27484L8.88752 4.979C8.99446 4.87206 9.04794 4.73595 9.04794 4.57067C9.04794 4.40539 8.99446 4.26928 8.88752 4.16234C8.78058 4.05539 8.64446 4.00192 8.47919 4.00192C8.31391 4.00192 8.1778 4.05539 8.07085 4.16234L5.18335 7.04984ZM6.00002 11.8332C5.19308 11.8332 4.43474 11.68 3.72502 11.3738C3.0153 11.0675 2.39794 10.6519 1.87294 10.1269C1.34794 9.60192 0.932312 8.98456 0.626062 8.27484C0.319812 7.56511 0.166687 6.80678 0.166687 5.99984C0.166687 5.19289 0.319812 4.43456 0.626062 3.72484C0.932312 3.01512 1.34794 2.39775 1.87294 1.87275C2.39794 1.34775 3.0153 0.932129 3.72502 0.625879C4.43474 0.319629 5.19308 0.166504 6.00002 0.166504C6.80696 0.166504 7.5653 0.319629 8.27502 0.625879C8.98474 0.932129 9.6021 1.34775 10.1271 1.87275C10.6521 2.39775 11.0677 3.01512 11.374 3.72484C11.6802 4.43456 11.8334 5.19289 11.8334 5.99984C11.8334 6.80678 11.6802 7.56511 11.374 8.27484C11.0677 8.98456 10.6521 9.60192 10.1271 10.1269C9.6021 10.6519 8.98474 11.0675 8.27502 11.3738C7.5653 11.68 6.80696 11.8332 6.00002 11.8332Z" fill="#F7F9FF"/>
</svg>
