<svg width="26" height="27" viewBox="0 0 26 27" fill="none" xmlns="http://www.w3.org/2000/svg">
<g clip-path="url(#clip0_2202_335)">
<path d="M15.34 11.7664L9.92331 7.89893C9.16498 7.35726 8.15748 7.35726 7.40998 7.89893L1.99331 11.7664C1.41915 12.1781 1.08331 12.8281 1.08331 13.5323V22.1664C1.08331 22.7623 1.57081 23.2498 2.16665 23.2498H6.49998V16.7498H10.8333V23.2498H15.1666C15.7625 23.2498 16.25 22.7623 16.25 22.1664V13.5323C16.25 12.8281 15.9141 12.1781 15.34 11.7664Z" fill="#012970"/>
<path d="M22.7825 3.75H12.9675C11.7866 3.75 10.8333 4.70333 10.8333 5.88417L10.9308 5.98167C11.0175 6.03583 11.1041 6.07917 11.1908 6.13333L16.6075 10.0008C17.4308 10.5858 18.0158 11.4525 18.2758 12.4167H20.5833V14.5833H18.4166V16.75H20.5833V18.9167H18.4166V22.1667V23.25H22.7825C23.9633 23.25 24.9166 22.2967 24.9166 21.1158V5.88417C24.9166 4.70333 23.9633 3.75 22.7825 3.75ZM20.5833 10.25H18.4166V8.08333H20.5833V10.25Z" fill="#012970"/>
</g>
<defs>
<clipPath id="clip0_2202_335">
<rect width="26" height="26" fill="white" transform="translate(0 0.5)"/>
</clipPath>
</defs>
</svg>
