<svg width="24" height="24" viewBox="0 0 24 24" fill="none" xmlns="http://www.w3.org/2000/svg">
<path d="M3.99988 21C3.71654 21 3.47904 20.9042 3.28738 20.7125C3.09571 20.5208 2.99988 20.2833 2.99988 20V17.575C2.99988 17.3083 3.04988 17.0542 3.14988 16.8125C3.24988 16.5708 3.39154 16.3583 3.57488 16.175L16.1999 3.575C16.3999 3.39167 16.6207 3.25 16.8624 3.15C17.104 3.05 17.3582 3 17.6249 3C17.8915 3 18.1499 3.05 18.3999 3.15C18.6499 3.25 18.8665 3.4 19.0499 3.6L20.4249 5C20.6249 5.18333 20.7707 5.4 20.8624 5.65C20.954 5.9 20.9999 6.15 20.9999 6.4C20.9999 6.66667 20.954 6.92083 20.8624 7.1625C20.7707 7.40417 20.6249 7.625 20.4249 7.825L7.82488 20.425C7.64154 20.6083 7.42904 20.75 7.18738 20.85C6.94571 20.95 6.69154 21 6.42488 21H3.99988ZM17.5999 7.8L18.9999 6.4L17.5999 5L16.1999 6.4L17.5999 7.8Z" fill="#676767"/>
</svg>
