<svg width="16" height="16" viewBox="0 0 16 16" fill="none" xmlns="http://www.w3.org/2000/svg">
<path d="M3.33333 14.6666C2.96667 14.6666 2.65278 14.536 2.39167 14.2749C2.13056 14.0138 2 13.6999 2 13.3333V3.99992C2 3.63325 2.13056 3.31936 2.39167 3.05825C2.65278 2.79714 2.96667 2.66659 3.33333 2.66659H4V1.99992C4 1.81103 4.06389 1.6527 4.19167 1.52492C4.31944 1.39714 4.47778 1.33325 4.66667 1.33325C4.85556 1.33325 5.01389 1.39714 5.14167 1.52492C5.26944 1.6527 5.33333 1.81103 5.33333 1.99992V2.66659H10.6667V1.99992C10.6667 1.81103 10.7306 1.6527 10.8583 1.52492C10.9861 1.39714 11.1444 1.33325 11.3333 1.33325C11.5222 1.33325 11.6806 1.39714 11.8083 1.52492C11.9361 1.6527 12 1.81103 12 1.99992V2.66659H12.6667C13.0333 2.66659 13.3472 2.79714 13.6083 3.05825C13.8694 3.31936 14 3.63325 14 3.99992V7.11659C14 7.30547 13.9361 7.46381 13.8083 7.59159C13.6806 7.71936 13.5222 7.78325 13.3333 7.78325C13.1444 7.78325 12.9861 7.71936 12.8583 7.59159C12.7306 7.46381 12.6667 7.30547 12.6667 7.11659V6.66659H3.33333V13.3333H7.2C7.38889 13.3333 7.54722 13.3971 7.675 13.5249C7.80278 13.6527 7.86667 13.811 7.86667 13.9999C7.86667 14.1888 7.80278 14.3471 7.675 14.4749C7.54722 14.6027 7.38889 14.6666 7.2 14.6666H3.33333ZM12 15.3333C11.0778 15.3333 10.2917 15.0083 9.64167 14.3583C8.99167 13.7083 8.66667 12.9221 8.66667 11.9999C8.66667 11.0777 8.99167 10.2916 9.64167 9.64159C10.2917 8.99159 11.0778 8.66659 12 8.66659C12.9222 8.66659 13.7083 8.99159 14.3583 9.64159C15.0083 10.2916 15.3333 11.0777 15.3333 11.9999C15.3333 12.9221 15.0083 13.7083 14.3583 14.3583C13.7083 15.0083 12.9222 15.3333 12 15.3333ZM12.3333 11.8666V10.3333C12.3333 10.2444 12.3 10.1666 12.2333 10.0999C12.1667 10.0333 12.0889 9.99992 12 9.99992C11.9111 9.99992 11.8333 10.0333 11.7667 10.0999C11.7 10.1666 11.6667 10.2444 11.6667 10.3333V11.8499C11.6667 11.9388 11.6833 12.0249 11.7167 12.1083C11.75 12.1916 11.8 12.2666 11.8667 12.3333L12.8833 13.3499C12.95 13.4166 13.0278 13.4499 13.1167 13.4499C13.2056 13.4499 13.2833 13.4166 13.35 13.3499C13.4167 13.2833 13.45 13.2055 13.45 13.1166C13.45 13.0277 13.4167 12.9499 13.35 12.8833L12.3333 11.8666Z" fill="#F7F9FF"/>
</svg>
