<svg width="26" height="27" viewBox="0 0 26 27" fill="none" xmlns="http://www.w3.org/2000/svg">
<path d="M1.13751 22.1667V20.2167C1.13751 19.6208 1.29098 19.0611 1.59793 18.5375C1.90487 18.0139 2.32918 17.6167 2.87085 17.3458C3.79168 16.8764 4.82987 16.4792 5.98543 16.1542C7.14098 15.8292 8.4139 15.6667 9.80418 15.6667C11.1945 15.6667 12.4674 15.8292 13.6229 16.1542C14.7785 16.4792 15.8167 16.8764 16.7375 17.3458C17.2792 17.6167 17.7035 18.0139 18.0104 18.5375C18.3174 19.0611 18.4708 19.6208 18.4708 20.2167V22.1667C18.4708 22.4736 18.367 22.7309 18.1594 22.9385C17.9517 23.1462 17.6945 23.25 17.3875 23.25H2.22085C1.9139 23.25 1.65661 23.1462 1.44897 22.9385C1.24133 22.7309 1.13751 22.4736 1.13751 22.1667ZM9.80418 14.5833C8.61251 14.5833 7.59237 14.159 6.74376 13.3104C5.89515 12.4618 5.47085 11.4417 5.47085 10.25H5.20001C5.03751 10.25 4.90661 10.2003 4.8073 10.101C4.708 10.0017 4.65835 9.87083 4.65835 9.70833C4.65835 9.54583 4.708 9.41493 4.8073 9.31563C4.90661 9.21632 5.03751 9.16667 5.20001 9.16667H5.47085C5.47085 8.35417 5.66946 7.62292 6.06668 6.97292C6.4639 6.32292 6.98751 5.80833 7.63751 5.42917V6.45833C7.63751 6.62083 7.68717 6.75174 7.78647 6.85104C7.88578 6.95035 8.01668 7 8.17918 7C8.34168 7 8.47258 6.95035 8.57189 6.85104C8.67119 6.75174 8.72085 6.62083 8.72085 6.45833V4.99583C8.88335 4.94167 9.05487 4.90104 9.23543 4.87396C9.41598 4.84687 9.60557 4.83333 9.80418 4.83333C10.0028 4.83333 10.1924 4.84687 10.3729 4.87396C10.5535 4.90104 10.725 4.94167 10.8875 4.99583V6.45833C10.8875 6.62083 10.9372 6.75174 11.0365 6.85104C11.1358 6.95035 11.2667 7 11.4292 7C11.5917 7 11.7226 6.95035 11.8219 6.85104C11.9212 6.75174 11.9708 6.62083 11.9708 6.45833V5.42917C12.6208 5.80833 13.1445 6.32292 13.5417 6.97292C13.9389 7.62292 14.1375 8.35417 14.1375 9.16667H14.4083C14.5708 9.16667 14.7017 9.21632 14.8011 9.31563C14.9004 9.41493 14.95 9.54583 14.95 9.70833C14.95 9.87083 14.9004 10.0017 14.8011 10.101C14.7017 10.2003 14.5708 10.25 14.4083 10.25H14.1375C14.1375 11.4417 13.7132 12.4618 12.8646 13.3104C12.016 14.159 10.9958 14.5833 9.80418 14.5833ZM9.80418 12.4167C10.4 12.4167 10.9101 12.2045 11.3344 11.7802C11.7587 11.3559 11.9708 10.8458 11.9708 10.25H7.63751C7.63751 10.8458 7.84967 11.3559 8.27397 11.7802C8.69828 12.2045 9.20835 12.4167 9.80418 12.4167ZM17.8479 16.3167L17.7667 15.9375C17.6583 15.9014 17.5545 15.8608 17.4552 15.8156C17.3559 15.7705 17.2611 15.7028 17.1708 15.6125L16.8458 15.7208C16.7195 15.7569 16.5976 15.7569 16.4802 15.7208C16.3629 15.6847 16.2681 15.6035 16.1958 15.4771L16.0875 15.2875C16.0153 15.1792 15.9927 15.0618 16.0198 14.9354C16.0469 14.809 16.1056 14.7007 16.1958 14.6104L16.4667 14.3667V13.7167L16.1958 13.4729C16.1056 13.3826 16.0469 13.2743 16.0198 13.1479C15.9927 13.0215 16.0153 12.9042 16.0875 12.7958L16.1958 12.6062C16.2681 12.4799 16.3629 12.3986 16.4802 12.3625C16.5976 12.3264 16.7195 12.3264 16.8458 12.3625L17.1708 12.4708C17.2431 12.3986 17.3333 12.3354 17.4417 12.2812C17.55 12.2271 17.6583 12.1819 17.7667 12.1458L17.8479 11.7667C17.884 11.6403 17.9472 11.5365 18.0375 11.4552C18.1278 11.374 18.2361 11.3333 18.3625 11.3333H18.5792C18.7056 11.3333 18.8139 11.374 18.9042 11.4552C18.9945 11.5365 19.0577 11.6403 19.0938 11.7667L19.175 12.1458C19.2833 12.1819 19.3917 12.2271 19.5 12.2812C19.6083 12.3354 19.6986 12.3986 19.7708 12.4708L20.0958 12.3625C20.2222 12.3264 20.3441 12.3264 20.4615 12.3625C20.5788 12.3986 20.6736 12.4799 20.7458 12.6062L20.8542 12.7958C20.9264 12.9042 20.949 13.0215 20.9219 13.1479C20.8948 13.2743 20.8361 13.3826 20.7458 13.4729L20.475 13.7167V14.3667L20.7458 14.6104C20.8361 14.7007 20.8948 14.809 20.9219 14.9354C20.949 15.0618 20.9264 15.1792 20.8542 15.2875L20.7458 15.4771C20.6736 15.6035 20.5788 15.6847 20.4615 15.7208C20.3441 15.7569 20.2222 15.7569 20.0958 15.7208L19.7708 15.6125C19.6806 15.7028 19.5858 15.7705 19.4865 15.8156C19.3872 15.8608 19.2833 15.9014 19.175 15.9375L19.0938 16.3167C19.0577 16.4431 18.9945 16.5469 18.9042 16.6281C18.8139 16.7094 18.7056 16.75 18.5792 16.75H18.3625C18.2361 16.75 18.1278 16.7094 18.0375 16.6281C17.9472 16.5469 17.884 16.4431 17.8479 16.3167ZM18.4708 14.8542C18.6875 14.8542 18.8771 14.7729 19.0396 14.6104C19.2021 14.4479 19.2833 14.2583 19.2833 14.0417C19.2833 13.825 19.2021 13.6354 19.0396 13.4729C18.8771 13.3104 18.6875 13.2292 18.4708 13.2292C18.2542 13.2292 18.0646 13.3104 17.9021 13.4729C17.7396 13.6354 17.6583 13.825 17.6583 14.0417C17.6583 14.2583 17.7396 14.4479 17.9021 14.6104C18.0646 14.7729 18.2542 14.8542 18.4708 14.8542ZM20.3125 10.7375L20.2042 10.1958C20.0417 10.1417 19.8927 10.074 19.7573 9.99271C19.6219 9.91146 19.5 9.81667 19.3917 9.70833L18.8229 9.89792C18.6604 9.95208 18.4979 9.94757 18.3354 9.88438C18.1729 9.82118 18.0465 9.71736 17.9563 9.57292L17.7938 9.30208C17.7035 9.15764 17.6719 8.99965 17.699 8.82812C17.7261 8.6566 17.8118 8.50764 17.9563 8.38125L18.4167 7.975C18.3806 7.88472 18.3625 7.8125 18.3625 7.75833V7.325C18.3625 7.27083 18.3806 7.19861 18.4167 7.10833L17.9563 6.70208C17.8118 6.57569 17.7261 6.42674 17.699 6.25521C17.6719 6.08368 17.7035 5.92569 17.7938 5.78125L17.9563 5.51042C18.0465 5.36597 18.1729 5.26215 18.3354 5.19896C18.4979 5.13576 18.6604 5.13125 18.8229 5.18542L19.3917 5.375C19.5 5.26667 19.6219 5.17188 19.7573 5.09063C19.8927 5.00937 20.0417 4.94167 20.2042 4.8875L20.3125 4.34583C20.3486 4.16528 20.4344 4.02083 20.5698 3.9125C20.7052 3.80417 20.8632 3.75 21.0438 3.75H21.3146C21.4952 3.75 21.6531 3.80417 21.7886 3.9125C21.924 4.02083 22.0097 4.16528 22.0458 4.34583L22.1542 4.8875C22.3167 4.94167 22.4656 5.00937 22.6011 5.09063C22.7365 5.17188 22.8583 5.26667 22.9667 5.375L23.5354 5.18542C23.6979 5.13125 23.8604 5.13576 24.0229 5.19896C24.1854 5.26215 24.3118 5.36597 24.4021 5.51042L24.5646 5.78125C24.6549 5.92569 24.6865 6.08368 24.6594 6.25521C24.6323 6.42674 24.5465 6.57569 24.4021 6.70208L23.9417 7.10833C23.9778 7.19861 23.9958 7.27083 23.9958 7.325V7.75833C23.9958 7.8125 23.9778 7.88472 23.9417 7.975L24.4021 8.38125C24.5465 8.50764 24.6323 8.6566 24.6594 8.82812C24.6865 8.99965 24.6549 9.15764 24.5646 9.30208L24.4021 9.57292C24.3118 9.71736 24.1854 9.82118 24.0229 9.88438C23.8604 9.94757 23.6979 9.95208 23.5354 9.89792L22.9667 9.70833C22.8583 9.81667 22.7365 9.91146 22.6011 9.99271C22.4656 10.074 22.3167 10.1417 22.1542 10.1958L22.0458 10.7375C22.0097 10.9181 21.924 11.0625 21.7886 11.1708C21.6531 11.2792 21.4952 11.3333 21.3146 11.3333H21.0438C20.8632 11.3333 20.7052 11.2792 20.5698 11.1708C20.4344 11.0625 20.3486 10.9181 20.3125 10.7375ZM21.1792 8.89583C21.5583 8.89583 21.8788 8.76493 22.1406 8.50313C22.4024 8.24132 22.5333 7.92083 22.5333 7.54167C22.5333 7.1625 22.4024 6.84201 22.1406 6.58021C21.8788 6.3184 21.5583 6.1875 21.1792 6.1875C20.8 6.1875 20.4795 6.3184 20.2177 6.58021C19.9559 6.84201 19.825 7.1625 19.825 7.54167C19.825 7.92083 19.9559 8.24132 20.2177 8.50313C20.4795 8.76493 20.8 8.89583 21.1792 8.89583Z" fill="#012970"/>
</svg>
