<svg width="26" height="26" viewBox="0 0 26 26" fill="none" xmlns="http://www.w3.org/2000/svg">
<g clip-path="url(#clip0_2231_1831)">
<path d="M1.08333 19.5C0.776389 19.5 0.519097 19.3962 0.311458 19.1885C0.103819 18.9809 0 18.7236 0 18.4167V17.7938C0 17.0174 0.397222 16.3854 1.19167 15.8979C1.98611 15.4104 3.03333 15.1667 4.33333 15.1667C4.56806 15.1667 4.79375 15.1712 5.01042 15.1802C5.22708 15.1892 5.43472 15.2118 5.63333 15.2479C5.38056 15.6271 5.19097 16.0243 5.06458 16.4396C4.93819 16.8549 4.875 17.2882 4.875 17.7396V19.5H1.08333ZM7.58333 19.5C7.27639 19.5 7.0191 19.3962 6.81146 19.1885C6.60382 18.9809 6.5 18.7236 6.5 18.4167V17.7396C6.5 17.1618 6.65799 16.6337 6.97396 16.1552C7.28993 15.6767 7.73681 15.2569 8.31458 14.8958C8.89236 14.5347 9.58299 14.2639 10.3865 14.0833C11.1899 13.9028 12.0611 13.8125 13 13.8125C13.9569 13.8125 14.8372 13.9028 15.6406 14.0833C16.4441 14.2639 17.1347 14.5347 17.7125 14.8958C18.2903 15.2569 18.7326 15.6767 19.0396 16.1552C19.3465 16.6337 19.5 17.1618 19.5 17.7396V18.4167C19.5 18.7236 19.3962 18.9809 19.1885 19.1885C18.9809 19.3962 18.7236 19.5 18.4167 19.5H7.58333ZM21.125 19.5V17.7396C21.125 17.2701 21.0663 16.8278 20.949 16.4125C20.8316 15.9972 20.6556 15.609 20.4208 15.2479C20.6194 15.2118 20.8226 15.1892 21.0302 15.1802C21.2378 15.1712 21.45 15.1667 21.6667 15.1667C22.9667 15.1667 24.0139 15.4059 24.8083 15.8844C25.6028 16.3628 26 16.9993 26 17.7938V18.4167C26 18.7236 25.8962 18.9809 25.6885 19.1885C25.4809 19.3962 25.2236 19.5 24.9167 19.5H21.125ZM4.33333 14.0833C3.7375 14.0833 3.22743 13.8712 2.80313 13.4469C2.37882 13.0226 2.16667 12.5125 2.16667 11.9167C2.16667 11.3028 2.37882 10.7882 2.80313 10.3729C3.22743 9.95764 3.7375 9.75 4.33333 9.75C4.94722 9.75 5.46181 9.95764 5.87708 10.3729C6.29236 10.7882 6.5 11.3028 6.5 11.9167C6.5 12.5125 6.29236 13.0226 5.87708 13.4469C5.46181 13.8712 4.94722 14.0833 4.33333 14.0833ZM21.6667 14.0833C21.0708 14.0833 20.5608 13.8712 20.1365 13.4469C19.7122 13.0226 19.5 12.5125 19.5 11.9167C19.5 11.3028 19.7122 10.7882 20.1365 10.3729C20.5608 9.95764 21.0708 9.75 21.6667 9.75C22.2806 9.75 22.7951 9.95764 23.2104 10.3729C23.6257 10.7882 23.8333 11.3028 23.8333 11.9167C23.8333 12.5125 23.6257 13.0226 23.2104 13.4469C22.7951 13.8712 22.2806 14.0833 21.6667 14.0833ZM13 13C12.0972 13 11.3299 12.684 10.6979 12.0521C10.066 11.4201 9.75 10.6528 9.75 9.75C9.75 8.82917 10.066 8.05729 10.6979 7.43438C11.3299 6.81146 12.0972 6.5 13 6.5C13.9208 6.5 14.6927 6.81146 15.3156 7.43438C15.9385 8.05729 16.25 8.82917 16.25 9.75C16.25 10.6528 15.9385 11.4201 15.3156 12.0521C14.6927 12.684 13.9208 13 13 13Z" fill="#012970"/>
</g>
<defs>
<clipPath id="clip0_2231_1831">
<rect width="26" height="26" fill="white"/>
</clipPath>
</defs>
</svg>
