<svg width="18" height="14" viewBox="0 0 18 14" fill="none" xmlns="http://www.w3.org/2000/svg">
<path d="M0.787598 13V11.65C0.787598 11.2375 0.893848 10.85 1.10635 10.4875C1.31885 10.125 1.6126 9.85 1.9876 9.6625C2.6251 9.3375 3.34385 9.0625 4.14385 8.8375C4.94385 8.6125 5.8251 8.5 6.7876 8.5C7.7501 8.5 8.63135 8.6125 9.43135 8.8375C10.2313 9.0625 10.9501 9.3375 11.5876 9.6625C11.9626 9.85 12.2563 10.125 12.4688 10.4875C12.6813 10.85 12.7876 11.2375 12.7876 11.65V13C12.7876 13.2125 12.7157 13.3906 12.572 13.5344C12.4282 13.6781 12.2501 13.75 12.0376 13.75H1.5376C1.3251 13.75 1.14697 13.6781 1.00322 13.5344C0.859473 13.3906 0.787598 13.2125 0.787598 13ZM6.7876 7.75C5.9626 7.75 5.25635 7.45625 4.66885 6.86875C4.08135 6.28125 3.7876 5.575 3.7876 4.75H3.6001C3.4876 4.75 3.39697 4.71563 3.32822 4.64688C3.25947 4.57812 3.2251 4.4875 3.2251 4.375C3.2251 4.2625 3.25947 4.17188 3.32822 4.10313C3.39697 4.03438 3.4876 4 3.6001 4H3.7876C3.7876 3.4375 3.9251 2.93125 4.2001 2.48125C4.4751 2.03125 4.8376 1.675 5.2876 1.4125V2.125C5.2876 2.2375 5.32197 2.32812 5.39072 2.39688C5.45947 2.46563 5.5501 2.5 5.6626 2.5C5.7751 2.5 5.86572 2.46563 5.93447 2.39688C6.00322 2.32812 6.0376 2.2375 6.0376 2.125V1.1125C6.1501 1.075 6.26885 1.04688 6.39385 1.02813C6.51885 1.00938 6.6501 1 6.7876 1C6.9251 1 7.05635 1.00938 7.18135 1.02813C7.30635 1.04688 7.4251 1.075 7.5376 1.1125V2.125C7.5376 2.2375 7.57197 2.32812 7.64072 2.39688C7.70947 2.46563 7.8001 2.5 7.9126 2.5C8.0251 2.5 8.11572 2.46563 8.18447 2.39688C8.25322 2.32812 8.2876 2.2375 8.2876 2.125V1.4125C8.7376 1.675 9.1001 2.03125 9.3751 2.48125C9.6501 2.93125 9.7876 3.4375 9.7876 4H9.9751C10.0876 4 10.1782 4.03438 10.247 4.10313C10.3157 4.17188 10.3501 4.2625 10.3501 4.375C10.3501 4.4875 10.3157 4.57812 10.247 4.64688C10.1782 4.71563 10.0876 4.75 9.9751 4.75H9.7876C9.7876 5.575 9.49385 6.28125 8.90635 6.86875C8.31885 7.45625 7.6126 7.75 6.7876 7.75ZM6.7876 6.25C7.2001 6.25 7.55322 6.10313 7.84697 5.80938C8.14072 5.51562 8.2876 5.1625 8.2876 4.75H5.2876C5.2876 5.1625 5.43447 5.51562 5.72822 5.80938C6.02197 6.10313 6.3751 6.25 6.7876 6.25ZM12.3563 8.95L12.3001 8.6875C12.2251 8.6625 12.1532 8.63438 12.0845 8.60313C12.0157 8.57188 11.9501 8.525 11.8876 8.4625L11.6626 8.5375C11.5751 8.5625 11.4907 8.5625 11.4095 8.5375C11.3282 8.5125 11.2626 8.45625 11.2126 8.36875L11.1376 8.2375C11.0876 8.1625 11.072 8.08125 11.0907 7.99375C11.1095 7.90625 11.1501 7.83125 11.2126 7.76875L11.4001 7.6V7.15L11.2126 6.98125C11.1501 6.91875 11.1095 6.84375 11.0907 6.75625C11.072 6.66875 11.0876 6.5875 11.1376 6.5125L11.2126 6.38125C11.2626 6.29375 11.3282 6.2375 11.4095 6.2125C11.4907 6.1875 11.5751 6.1875 11.6626 6.2125L11.8876 6.2875C11.9376 6.2375 12.0001 6.19375 12.0751 6.15625C12.1501 6.11875 12.2251 6.0875 12.3001 6.0625L12.3563 5.8C12.3813 5.7125 12.4251 5.64062 12.4876 5.58438C12.5501 5.52813 12.6251 5.5 12.7126 5.5H12.8626C12.9501 5.5 13.0251 5.52813 13.0876 5.58438C13.1501 5.64062 13.1938 5.7125 13.2188 5.8L13.2751 6.0625C13.3501 6.0875 13.4251 6.11875 13.5001 6.15625C13.5751 6.19375 13.6376 6.2375 13.6876 6.2875L13.9126 6.2125C14.0001 6.1875 14.0845 6.1875 14.1657 6.2125C14.247 6.2375 14.3126 6.29375 14.3626 6.38125L14.4376 6.5125C14.4876 6.5875 14.5032 6.66875 14.4845 6.75625C14.4657 6.84375 14.4251 6.91875 14.3626 6.98125L14.1751 7.15V7.6L14.3626 7.76875C14.4251 7.83125 14.4657 7.90625 14.4845 7.99375C14.5032 8.08125 14.4876 8.1625 14.4376 8.2375L14.3626 8.36875C14.3126 8.45625 14.247 8.5125 14.1657 8.5375C14.0845 8.5625 14.0001 8.5625 13.9126 8.5375L13.6876 8.4625C13.6251 8.525 13.5595 8.57188 13.4907 8.60313C13.422 8.63438 13.3501 8.6625 13.2751 8.6875L13.2188 8.95C13.1938 9.0375 13.1501 9.10938 13.0876 9.16563C13.0251 9.22188 12.9501 9.25 12.8626 9.25H12.7126C12.6251 9.25 12.5501 9.22188 12.4876 9.16563C12.4251 9.10938 12.3813 9.0375 12.3563 8.95ZM12.7876 7.9375C12.9376 7.9375 13.0688 7.88125 13.1813 7.76875C13.2938 7.65625 13.3501 7.525 13.3501 7.375C13.3501 7.225 13.2938 7.09375 13.1813 6.98125C13.0688 6.86875 12.9376 6.8125 12.7876 6.8125C12.6376 6.8125 12.5063 6.86875 12.3938 6.98125C12.2813 7.09375 12.2251 7.225 12.2251 7.375C12.2251 7.525 12.2813 7.65625 12.3938 7.76875C12.5063 7.88125 12.6376 7.9375 12.7876 7.9375ZM14.0626 5.0875L13.9876 4.7125C13.8751 4.675 13.772 4.62813 13.6782 4.57188C13.5845 4.51562 13.5001 4.45 13.4251 4.375L13.0313 4.50625C12.9188 4.54375 12.8063 4.54063 12.6938 4.49688C12.5813 4.45312 12.4938 4.38125 12.4313 4.28125L12.3188 4.09375C12.2563 3.99375 12.2345 3.88438 12.2532 3.76563C12.272 3.64688 12.3313 3.54375 12.4313 3.45625L12.7501 3.175C12.7251 3.1125 12.7126 3.0625 12.7126 3.025V2.725C12.7126 2.6875 12.7251 2.6375 12.7501 2.575L12.4313 2.29375C12.3313 2.20625 12.272 2.10313 12.2532 1.98438C12.2345 1.86563 12.2563 1.75625 12.3188 1.65625L12.4313 1.46875C12.4938 1.36875 12.5813 1.29688 12.6938 1.25313C12.8063 1.20938 12.9188 1.20625 13.0313 1.24375L13.4251 1.375C13.5001 1.3 13.5845 1.23438 13.6782 1.17813C13.772 1.12188 13.8751 1.075 13.9876 1.0375L14.0626 0.6625C14.0876 0.5375 14.147 0.4375 14.2407 0.3625C14.3345 0.2875 14.4438 0.25 14.5688 0.25H14.7563C14.8813 0.25 14.9907 0.2875 15.0845 0.3625C15.1782 0.4375 15.2376 0.5375 15.2626 0.6625L15.3376 1.0375C15.4501 1.075 15.5532 1.12188 15.647 1.17813C15.7407 1.23438 15.8251 1.3 15.9001 1.375L16.2938 1.24375C16.4063 1.20625 16.5188 1.20938 16.6313 1.25313C16.7438 1.29688 16.8313 1.36875 16.8938 1.46875L17.0063 1.65625C17.0688 1.75625 17.0907 1.86563 17.072 1.98438C17.0532 2.10313 16.9938 2.20625 16.8938 2.29375L16.5751 2.575C16.6001 2.6375 16.6126 2.6875 16.6126 2.725V3.025C16.6126 3.0625 16.6001 3.1125 16.5751 3.175L16.8938 3.45625C16.9938 3.54375 17.0532 3.64688 17.072 3.76563C17.0907 3.88438 17.0688 3.99375 17.0063 4.09375L16.8938 4.28125C16.8313 4.38125 16.7438 4.45312 16.6313 4.49688C16.5188 4.54063 16.4063 4.54375 16.2938 4.50625L15.9001 4.375C15.8251 4.45 15.7407 4.51562 15.647 4.57188C15.5532 4.62813 15.4501 4.675 15.3376 4.7125L15.2626 5.0875C15.2376 5.2125 15.1782 5.3125 15.0845 5.3875C14.9907 5.4625 14.8813 5.5 14.7563 5.5H14.5688C14.4438 5.5 14.3345 5.4625 14.2407 5.3875C14.147 5.3125 14.0876 5.2125 14.0626 5.0875ZM14.6626 3.8125C14.9251 3.8125 15.147 3.72188 15.3282 3.54063C15.5095 3.35938 15.6001 3.1375 15.6001 2.875C15.6001 2.6125 15.5095 2.39062 15.3282 2.20938C15.147 2.02813 14.9251 1.9375 14.6626 1.9375C14.4001 1.9375 14.1782 2.02813 13.997 2.20938C13.8157 2.39062 13.7251 2.6125 13.7251 2.875C13.7251 3.1375 13.8157 3.35938 13.997 3.54063C14.1782 3.72188 14.4001 3.8125 14.6626 3.8125Z" fill="#4154F1"/>
</svg>
