<svg width="20" height="19" viewBox="0 0 20 19" fill="none" xmlns="http://www.w3.org/2000/svg">
<path d="M5 12.4167H15C15.2833 12.4167 15.5208 12.3249 15.7125 12.1412C15.9042 11.9575 16 11.7299 16 11.4584C16 11.1869 15.9042 10.9593 15.7125 10.7756C15.5208 10.5919 15.2833 10.5001 15 10.5001H5C4.71667 10.5001 4.47917 10.5919 4.2875 10.7756C4.09583 10.9593 4 11.1869 4 11.4584C4 11.7299 4.09583 11.9575 4.2875 12.1412C4.47917 12.3249 4.71667 12.4167 5 12.4167ZM5 9.54175H15C15.2833 9.54175 15.5208 9.44991 15.7125 9.26623C15.9042 9.08255 16 8.85494 16 8.58341C16 8.31189 15.9042 8.08428 15.7125 7.9006C15.5208 7.71692 15.2833 7.62508 15 7.62508H5C4.71667 7.62508 4.47917 7.71692 4.2875 7.9006C4.09583 8.08428 4 8.31189 4 8.58341C4 8.85494 4.09583 9.08255 4.2875 9.26623C4.47917 9.44991 4.71667 9.54175 5 9.54175ZM5 6.66675H15C15.2833 6.66675 15.5208 6.57491 15.7125 6.39123C15.9042 6.20755 16 5.97994 16 5.70841C16 5.43689 15.9042 5.20928 15.7125 5.0256C15.5208 4.84192 15.2833 4.75008 15 4.75008H5C4.71667 4.75008 4.47917 4.84192 4.2875 5.0256C4.09583 5.20928 4 5.43689 4 5.70841C4 5.97994 4.09583 6.20755 4.2875 6.39123C4.47917 6.57491 4.71667 6.66675 5 6.66675ZM2 16.2501C1.45 16.2501 0.979167 16.0624 0.5875 15.6871C0.195833 15.3117 0 14.8605 0 14.3334V2.83341C0 2.30633 0.195833 1.85512 0.5875 1.47977C0.979167 1.10442 1.45 0.916748 2 0.916748H18C18.55 0.916748 19.0208 1.10442 19.4125 1.47977C19.8042 1.85512 20 2.30633 20 2.83341V17.7595C20 18.1907 19.7958 18.4902 19.3875 18.6579C18.9792 18.8256 18.6167 18.7577 18.3 18.4542L16 16.2501H2Z" fill="#5F6368"/>
</svg>
