<svg width="20" height="21" viewBox="0 0 20 21" fill="none" xmlns="http://www.w3.org/2000/svg">
<path d="M2.41667 9.41667H6.75C7.94167 9.41667 8.91667 8.44167 8.91667 7.25V2.91667C8.91667 1.725 7.94167 0.75 6.75 0.75H2.41667C1.225 0.75 0.25 1.725 0.25 2.91667V7.25C0.25 8.44167 1.225 9.41667 2.41667 9.41667Z" fill="#012970"/>
<path d="M2.41667 20.2502H6.75C7.94167 20.2502 8.91667 19.2752 8.91667 18.0835V13.7502C8.91667 12.5585 7.94167 11.5835 6.75 11.5835H2.41667C1.225 11.5835 0.25 12.5585 0.25 13.7502V18.0835C0.25 19.2752 1.225 20.2502 2.41667 20.2502Z" fill="#012970"/>
<path d="M11.0833 2.91667V7.25C11.0833 8.44167 12.0583 9.41667 13.25 9.41667H17.5833C18.775 9.41667 19.75 8.44167 19.75 7.25V2.91667C19.75 1.725 18.775 0.75 17.5833 0.75H13.25C12.0583 0.75 11.0833 1.725 11.0833 2.91667Z" fill="#012970"/>
<path d="M13.25 20.2502H17.5833C18.775 20.2502 19.75 19.2752 19.75 18.0835V13.7502C19.75 12.5585 18.775 11.5835 17.5833 11.5835H13.25C12.0583 11.5835 11.0833 12.5585 11.0833 13.7502V18.0835C11.0833 19.2752 12.0583 20.2502 13.25 20.2502Z" fill="#012970"/>
</svg>
