<svg width="14" height="13" viewBox="0 0 14 13" fill="none" xmlns="http://www.w3.org/2000/svg">
<path d="M9.42501 6.50005L13.3 2.60005C13.4833 2.41672 13.5792 2.18755 13.5875 1.91255C13.5958 1.63755 13.5 1.40005 13.3 1.20005C13.1167 1.01672 12.8833 0.925049 12.6 0.925049C12.3167 0.925049 12.0833 1.01672 11.9 1.20005L7.30001 5.80005C7.20001 5.90005 7.12918 6.00838 7.08751 6.12505C7.04585 6.24172 7.02501 6.36672 7.02501 6.50005C7.02501 6.63338 7.04585 6.75838 7.08751 6.87505C7.12918 6.99172 7.20001 7.10005 7.30001 7.20005L11.9 11.8C12.0833 11.9834 12.3125 12.0792 12.5875 12.0875C12.8625 12.0959 13.1 12 13.3 11.8C13.4833 11.6167 13.575 11.3834 13.575 11.1C13.575 10.8167 13.4833 10.5834 13.3 10.4L9.42501 6.50005ZM2.82501 6.50005L6.70001 2.60005C6.88335 2.41672 6.97918 2.18755 6.98751 1.91255C6.99585 1.63755 6.90001 1.40005 6.70001 1.20005C6.51668 1.01672 6.28335 0.925049 6.00001 0.925049C5.71668 0.925049 5.48335 1.01672 5.30001 1.20005L0.700012 5.80005C0.600012 5.90005 0.529179 6.00838 0.487512 6.12505C0.445845 6.24172 0.425012 6.36672 0.425012 6.50005C0.425012 6.63338 0.445845 6.75838 0.487512 6.87505C0.529179 6.99172 0.600012 7.10005 0.700012 7.20005L5.30001 11.8C5.48335 11.9834 5.71251 12.0792 5.98751 12.0875C6.26251 12.0959 6.50001 12 6.70001 11.8C6.88335 11.6167 6.97501 11.3834 6.97501 11.1C6.97501 10.8167 6.88335 10.5834 6.70001 10.4L2.82501 6.50005Z" fill="#2B2D42"/>
</svg>
