<svg width="24" height="24" viewBox="0 0 24 24" fill="none" xmlns="http://www.w3.org/2000/svg">
<g clip-path="url(#clip0_370_2246)">
<path d="M11.9999 4C6.99988 4 2.72988 7.11 0.999878 11.5C2.72988 15.89 6.99988 19 11.9999 19C16.9999 19 21.2699 15.89 22.9999 11.5C21.2699 7.11 16.9999 4 11.9999 4ZM11.9999 16.5C9.23988 16.5 6.99988 14.26 6.99988 11.5C6.99988 8.74 9.23988 6.5 11.9999 6.5C14.7599 6.5 16.9999 8.74 16.9999 11.5C16.9999 14.26 14.7599 16.5 11.9999 16.5ZM11.9999 8.5C10.3399 8.5 8.99988 9.84 8.99988 11.5C8.99988 13.16 10.3399 14.5 11.9999 14.5C13.6599 14.5 14.9999 13.16 14.9999 11.5C14.9999 9.84 13.6599 8.5 11.9999 8.5Z" fill="#4154F1"/>
</g>
<defs>
<clipPath id="clip0_370_2246">
<rect width="24" height="24" fill="white"/>
</clipPath>
</defs>
</svg>
