<svg width="15" height="15" viewBox="0 0 15 15" fill="none" xmlns="http://www.w3.org/2000/svg">
<path d="M2.43511 9.45099C2.27378 9.32999 2.19563 9.17117 2.20067 8.97454C2.20571 8.77791 2.2889 8.61909 2.45024 8.49809C2.56116 8.41742 2.68216 8.37709 2.81325 8.37709C2.94434 8.37709 3.06534 8.41742 3.17626 8.49809L7.26014 11.6593L11.344 8.49809C11.4549 8.41742 11.5759 8.37709 11.707 8.37709C11.8381 8.37709 11.9591 8.41742 12.07 8.49809C12.2314 8.61909 12.3146 8.77791 12.3196 8.97454C12.3246 9.17117 12.2465 9.32999 12.0852 9.45099L8.00128 12.6273C7.77944 12.7988 7.53239 12.8845 7.26014 12.8845C6.98788 12.8845 6.74083 12.7988 6.51899 12.6273L2.43511 9.45099ZM6.51899 9.572L3.04013 6.86454C2.72754 6.62253 2.57124 6.3049 2.57124 5.91164C2.57124 5.51837 2.72754 5.20074 3.04013 4.95873L6.51899 2.25127C6.74083 2.07985 6.98788 1.99414 7.26014 1.99414C7.53239 1.99414 7.77944 2.07985 8.00128 2.25127L11.4801 4.95873C11.7927 5.20074 11.949 5.51837 11.949 5.91164C11.949 6.3049 11.7927 6.62253 11.4801 6.86454L8.00128 9.572C7.77944 9.74342 7.53239 9.82913 7.26014 9.82913C6.98788 9.82913 6.74083 9.74342 6.51899 9.572Z" fill="#1A2130"/>
</svg>
