<svg width="15" height="15" viewBox="0 0 15 15" fill="none" xmlns="http://www.w3.org/2000/svg">
<path d="M2.76961 13.777C2.43685 13.777 2.15198 13.6585 1.91502 13.4216C1.67805 13.1846 1.55957 12.8997 1.55957 12.567V2.88667C1.55957 2.55391 1.67805 2.26905 1.91502 2.03208C2.15198 1.79512 2.43685 1.67664 2.76961 1.67664H12.4499C12.7827 1.67664 13.0675 1.79512 13.3045 2.03208C13.5415 2.26905 13.6599 2.55391 13.6599 2.88667V12.567C13.6599 12.8997 13.5415 13.1846 13.3045 13.4216C13.0675 13.6585 12.7827 13.777 12.4499 13.777H2.76961ZM4.58466 11.3569H10.6348C10.9676 11.3569 11.2525 11.2385 11.4894 11.0015C11.7264 10.7645 11.8449 10.4797 11.8449 10.1469V8.02933C11.8449 7.75707 11.7768 7.5075 11.6407 7.28062C11.5046 7.05374 11.3205 6.86971 11.0886 6.72854V5.91177C11.0886 5.40758 10.9121 4.97903 10.5592 4.6261C10.2063 4.27317 9.77774 4.09671 9.27356 4.09671H5.94596C5.44177 4.09671 5.01322 4.27317 4.66029 4.6261C4.30736 4.97903 4.1309 5.40758 4.1309 5.91177V6.72854C3.89898 6.86971 3.71495 7.05374 3.57882 7.28062C3.44269 7.5075 3.37463 7.75707 3.37463 8.02933V10.1469C3.37463 10.4797 3.49311 10.7645 3.73007 11.0015C3.96704 11.2385 4.2519 11.3569 4.58466 11.3569ZM4.58466 10.4494C4.49391 10.4494 4.4208 10.4217 4.36534 10.3662C4.30988 10.3108 4.28215 10.2376 4.28215 10.1469V8.02933C4.28215 7.85791 4.34013 7.71422 4.4561 7.59826C4.57206 7.48229 4.71575 7.42431 4.88717 7.42431C5.05859 7.42431 5.20229 7.48229 5.31825 7.59826C5.43421 7.71422 5.49219 7.85791 5.49219 8.02933V9.23937H9.72732V8.02933C9.72732 7.85791 9.7853 7.71422 9.90126 7.59826C10.0172 7.48229 10.1609 7.42431 10.3323 7.42431C10.5038 7.42431 10.6475 7.48229 10.7634 7.59826C10.8794 7.71422 10.9374 7.85791 10.9374 8.02933V10.1469C10.9374 10.2376 10.9096 10.3108 10.8542 10.3662C10.7987 10.4217 10.7256 10.4494 10.6348 10.4494H4.58466ZM6.39972 8.33184V8.02933C6.39972 7.63607 6.26863 7.29827 6.00646 7.01592C5.74428 6.73358 5.42161 6.57729 5.03843 6.54704V5.91177C5.03843 5.64959 5.12414 5.43279 5.29556 5.26137C5.46698 5.08995 5.68378 5.00424 5.94596 5.00424H9.27356C9.53573 5.00424 9.75253 5.08995 9.92395 5.26137C10.0954 5.43279 10.1811 5.64959 10.1811 5.91177V6.54704C9.79791 6.57729 9.47523 6.73358 9.21306 7.01592C8.95088 7.29827 8.81979 7.63607 8.81979 8.02933V8.33184H6.39972Z" fill="#1A2130"/>
</svg>
