<svg width="28" height="29" viewBox="0 0 28 29" fill="none" xmlns="http://www.w3.org/2000/svg">
<g clip-path="url(#clip0_2207_100)">
<path d="M5.83333 6.33333H12.8333C13.475 6.33333 14 5.80833 14 5.16667C14 4.525 13.475 4 12.8333 4H5.83333C4.55 4 3.5 5.05 3.5 6.33333V22.6667C3.5 23.95 4.55 25 5.83333 25H12.8333C13.475 25 14 24.475 14 23.8333C14 23.1917 13.475 22.6667 12.8333 22.6667H5.83333V6.33333Z" fill="#4154F1"/>
<path d="M24.0917 14.0915L20.8367 10.8365C20.4633 10.4631 19.8333 10.7198 19.8333 11.2448V13.3331H11.6667C11.025 13.3331 10.5 13.8581 10.5 14.4998C10.5 15.1415 11.025 15.6665 11.6667 15.6665H19.8333V17.7548C19.8333 18.2798 20.4633 18.5365 20.825 18.1631L24.08 14.9081C24.3133 14.6865 24.3133 14.3131 24.0917 14.0915Z" fill="#4154F1"/>
</g>
<defs>
<clipPath id="clip0_2207_100">
<rect width="28" height="28" fill="white" transform="translate(0 0.5)"/>
</clipPath>
</defs>
</svg>
