<svg width="24" height="25" viewBox="0 0 24 25" fill="none" xmlns="http://www.w3.org/2000/svg">
<path d="M14.5 23.4998C14.0833 23.4998 13.7291 23.354 13.4375 23.0623C13.1458 22.7706 13 22.4165 13 21.9998V14.9998C13 14.5831 13.1458 14.229 13.4375 13.9373C13.7291 13.6456 14.0833 13.4998 14.5 13.4998H21.5C21.9166 13.4998 22.2708 13.6456 22.5625 13.9373C22.8541 14.229 23 14.5831 23 14.9998V21.9998C23 22.4165 22.8541 22.7706 22.5625 23.0623C22.2708 23.354 21.9166 23.4998 21.5 23.4998H14.5ZM15 21.9998H21C21.1333 21.9998 21.25 21.9498 21.35 21.8498C21.45 21.7498 21.5 21.6331 21.5 21.4998C21.5 21.3998 21.4833 21.3081 21.45 21.2248C21.4166 21.1415 21.3666 21.0581 21.3 20.9748C20.8833 20.5248 20.3958 20.1665 19.8375 19.8998C19.2791 19.6331 18.6666 19.4998 18 19.4998C17.3333 19.4998 16.7208 19.6331 16.1625 19.8998C15.6041 20.1665 15.1166 20.5248 14.7 20.9748C14.6666 21.0081 14.6 21.1831 14.5 21.4998C14.5 21.6331 14.55 21.7498 14.65 21.8498C14.75 21.9498 14.8666 21.9998 15 21.9998ZM18 18.4998C18.4166 18.4998 18.7708 18.354 19.0625 18.0623C19.3541 17.7706 19.5 17.4165 19.5 16.9998C19.5 16.5831 19.3541 16.229 19.0625 15.9373C18.7708 15.6456 18.4166 15.4998 18 15.4998C17.5833 15.4998 17.2291 15.6456 16.9375 15.9373C16.6458 16.229 16.5 16.5831 16.5 16.9998C16.5 17.4165 16.6458 17.7706 16.9375 18.0623C17.2291 18.354 17.5833 18.4998 18 18.4998ZM10.075 22.4998C9.82498 22.4998 9.62081 22.429 9.46248 22.2873C9.30415 22.1456 9.20831 21.9665 9.17498 21.7498L8.84998 19.3498C8.63331 19.2665 8.42915 19.1665 8.23748 19.0498C8.04581 18.9331 7.85831 18.8081 7.67498 18.6748L6.12498 19.3248C5.70831 19.5081 5.29165 19.5248 4.87498 19.3748C4.45831 19.2248 4.13331 18.9581 3.89998 18.5748L2.72498 16.5248C2.49165 16.1415 2.42498 15.7331 2.52498 15.2998C2.62498 14.8665 2.84998 14.5081 3.19998 14.2248L4.52498 13.2248C4.50831 13.1081 4.49998 12.9956 4.49998 12.8873V12.2123C4.49998 12.104 4.50831 11.9915 4.52498 11.8748L3.19998 10.8748C2.84998 10.5915 2.62498 10.2331 2.52498 9.7998C2.42498 9.36647 2.49165 8.95814 2.72498 8.5748L3.89998 6.5248C4.13331 6.14147 4.45831 5.8748 4.87498 5.7248C5.29165 5.5748 5.70831 5.59147 6.12498 5.7748L7.67498 6.4248C7.85831 6.29147 8.04998 6.16647 8.24998 6.0498C8.44998 5.93314 8.64998 5.83314 8.84998 5.7498L9.07498 4.0998C9.14165 3.66647 9.33748 3.2998 9.66248 2.9998C9.98748 2.6998 10.375 2.5498 10.825 2.5498H13.175C13.625 2.5498 14.0125 2.6998 14.3375 2.9998C14.6625 3.2998 14.8583 3.66647 14.925 4.0998L15.15 5.7498C15.3666 5.83314 15.5708 5.93314 15.7625 6.0498C15.9541 6.16647 16.1416 6.29147 16.325 6.4248L17.875 5.7748C18.2916 5.59147 18.7083 5.5748 19.125 5.7248C19.5416 5.8748 19.8666 6.14147 20.1 6.5248L21.275 8.5748C21.5083 8.95814 21.575 9.36647 21.475 9.7998C21.375 10.2331 21.15 10.5915 20.8 10.8748L20.175 11.3248C20.0916 11.3915 20 11.4373 19.9 11.4623C19.8 11.4873 19.7 11.4998 19.6 11.4998H15.725C15.625 11.4998 15.5333 11.4665 15.45 11.3998C15.3666 11.3331 15.3083 11.2581 15.275 11.1748C15.0083 10.5415 14.5875 10.0206 14.0125 9.6123C13.4375 9.20397 12.7833 8.9998 12.05 8.9998C11.0833 8.9998 10.2583 9.34147 9.57498 10.0248C8.89165 10.7081 8.54998 11.5331 8.54998 12.4998C8.54998 13.2331 8.74581 13.8873 9.13748 14.4623C9.52915 15.0373 10.0416 15.4581 10.675 15.7248C10.7583 15.7581 10.8333 15.8165 10.9 15.8998C10.9666 15.9831 11 16.0748 11 16.1748V21.6498C11 21.8831 10.9125 22.0831 10.7375 22.2498C10.5625 22.4165 10.3416 22.4998 10.075 22.4998Z" fill="#012970"/>
</svg>
