<svg width="26" height="26" viewBox="0 0 26 26" fill="none" xmlns="http://www.w3.org/2000/svg">
<g clip-path="url(#clip0_2231_1825)">
<path d="M20.5833 3.25H5.41667C4.225 3.25 3.25 4.225 3.25 5.41667V20.5833C3.25 21.775 4.225 22.75 5.41667 22.75H20.5833C21.775 22.75 22.75 21.775 22.75 20.5833V5.41667C22.75 4.225 21.775 3.25 20.5833 3.25ZM13 6.5C15.0908 6.5 16.7917 8.20083 16.7917 10.2917C16.7917 12.3825 15.0908 14.0833 13 14.0833C10.9092 14.0833 9.20833 12.3825 9.20833 10.2917C9.20833 8.20083 10.9092 6.5 13 6.5ZM20.5833 20.5833H5.41667V20.3342C5.41667 19.6625 5.72 19.0342 6.24 18.6225C8.0925 17.1383 10.4433 16.25 13 16.25C15.5567 16.25 17.9075 17.1383 19.76 18.6225C20.28 19.0342 20.5833 19.6733 20.5833 20.3342V20.5833Z" fill="#012970"/>
</g>
<defs>
<clipPath id="clip0_2231_1825">
<rect width="26" height="26" fill="white"/>
</clipPath>
</defs>
</svg>
