<svg width="32" height="32" viewBox="0 0 32 32" fill="none" xmlns="http://www.w3.org/2000/svg">
<path d="M6.26953 28.6969C6.83486 29.131 7.43006 29.5268 8.05087 29.8831L16 21.9335L23.9485 29.8827C24.57 29.5264 25.1648 29.1307 25.7302 28.6966L16 18.9663L6.26953 28.6969Z" fill="#4154F1"/>
<path d="M3.30273 6.27045L13.0332 16.0011L3.30273 25.7316C3.73011 26.2885 4.19091 26.8193 4.68656 27.315L16 16.0011L4.68656 4.6875C4.19056 5.18279 3.73011 5.71329 3.30273 6.27045Z" fill="#4154F1"/>
<path d="M25.7305 3.30298C25.1655 2.8692 24.57 2.47346 23.9492 2.11754L16 10.0664L8.05051 2.11719C7.42971 2.47346 6.83451 2.86955 6.26953 3.30298L16 13.0339L25.7305 3.30298Z" fill="#4154F1"/>
<path d="M18.9668 16.0018L28.6976 6.27081C28.2699 5.714 27.8094 5.18351 27.3134 4.6875L16 16.0018L27.3134 27.3157C27.8091 26.8197 28.2695 26.2892 28.6976 25.7324L18.9668 16.0018Z" fill="#4154F1"/>
<path d="M29.8835 8.05225L21.9336 16.0018L29.8835 23.9518C31.2275 21.609 32.0001 18.8972 32.0001 16.0018C32.0001 13.1072 31.2275 10.3947 29.8835 8.05225Z" fill="#4154F1"/>
<path d="M21.9335 30.8359L16 24.9009L10.0665 30.8359H10.0078C11.8592 31.5843 13.8805 31.9996 16 31.9996C18.1191 31.9996 20.1408 31.5843 21.9918 30.8359H21.9335Z" fill="#4154F1"/>
<path d="M10.0665 16.0015L2.11698 8.05225C0.772623 10.3943 0 13.1069 0 16.0015C0 18.8968 0.772267 21.6087 2.11698 23.9507L10.0665 16.0015Z" fill="#4154F1"/>
<path d="M10.0662 1.16552L15.9997 7.0991L21.9332 1.16552H21.9937C20.1419 0.41636 18.1199 0 15.9997 0C13.8792 0 11.8578 0.41636 10.0057 1.16517L10.0662 1.16552Z" fill="#4154F1"/>
</svg>
