<svg width="15" height="15" viewBox="0 0 15 15" fill="none" xmlns="http://www.w3.org/2000/svg">
<g clip-path="url(#clip0_544_3177)">
<path d="M12.2751 11.9619H11.67V3.49165C11.67 3.15889 11.3978 2.88663 11.065 2.88663H8.64495C8.64495 2.55387 8.37269 2.28162 8.03993 2.28162H3.8048C3.47204 2.28162 3.19978 2.55387 3.19978 2.88663V11.9619H2.59476C2.262 11.9619 1.98975 12.2342 1.98975 12.5669C1.98975 12.8997 2.262 13.172 2.59476 13.172H8.03993C8.37269 13.172 8.64495 12.8997 8.64495 12.5669V4.09667H10.46V12.5669C10.46 12.8997 10.7323 13.172 11.065 13.172H12.2751C12.6078 13.172 12.8801 12.8997 12.8801 12.5669C12.8801 12.2342 12.6078 11.9619 12.2751 11.9619ZM6.82989 8.3318C6.49713 8.3318 6.22488 8.05954 6.22488 7.72678C6.22488 7.39402 6.49713 7.12176 6.82989 7.12176C7.16265 7.12176 7.43491 7.39402 7.43491 7.72678C7.43491 8.05954 7.16265 8.3318 6.82989 8.3318Z" fill="#1A2130"/>
</g>
<defs>
<clipPath id="clip0_544_3177">
<rect width="14.5204" height="14.5204" fill="white" transform="translate(0.174683 0.466553)"/>
</clipPath>
</defs>
</svg>
