<svg width="10" height="5" viewBox="0 0 10 5" fill="none" xmlns="http://www.w3.org/2000/svg">
<path d="M1.2002 0.000195026C1.0502 0.000195026 0.929362 0.0501947 0.837695 0.150195C0.746029 0.250195 0.700195 0.366862 0.700195 0.500195C0.700195 0.533528 0.750195 0.650195 0.850195 0.850195L4.4752 4.4752C4.55853 4.55853 4.64186 4.61686 4.7252 4.6502C4.80853 4.68353 4.9002 4.7002 5.0002 4.7002C5.1002 4.7002 5.19186 4.68353 5.2752 4.6502C5.35853 4.61686 5.44186 4.55853 5.5252 4.4752L9.1502 0.850195C9.2002 0.800195 9.2377 0.746028 9.2627 0.687695C9.2877 0.629362 9.3002 0.566862 9.3002 0.500195C9.3002 0.366862 9.25436 0.250195 9.1627 0.150195C9.07103 0.0501947 8.9502 0.000195026 8.8002 0.000195026H1.2002Z" fill="#012970"/>
</svg>
