<svg width="36" height="32" viewBox="0 0 36 32" fill="none" xmlns="http://www.w3.org/2000/svg">
<rect x="0.5" y="0.5" width="35" height="31" rx="15.5" fill="#E7EAFF"/>
<rect x="0.5" y="0.5" width="35" height="31" rx="15.5" stroke="#4154F1"/>
<path d="M15.4091 17.9091C15.2159 17.9091 15.054 17.8438 14.9233 17.7131C14.7926 17.5824 14.7273 17.4205 14.7273 17.2273V13.8182C14.7273 13.4432 14.8608 13.1222 15.1278 12.8551C15.3949 12.5881 15.7159 12.4545 16.0909 12.4545H21.6477L20.3693 11.1761C20.233 11.0398 20.1648 10.8778 20.1648 10.6903C20.1648 10.5028 20.233 10.3409 20.3693 10.2045C20.5057 10.0682 20.6676 10 20.8551 10C21.0426 10 21.2045 10.0682 21.3409 10.2045L23.7955 12.6591C23.9318 12.7955 24 12.9545 24 13.1364C24 13.3182 23.9318 13.4773 23.7955 13.6136L21.3409 16.0682C21.2159 16.1932 21.0597 16.2585 20.8722 16.2642C20.6847 16.2699 20.5227 16.2045 20.3864 16.0682C20.25 15.9318 20.179 15.7699 20.1733 15.5824C20.1676 15.3949 20.233 15.233 20.3693 15.0966L21.6477 13.8182H16.0909V17.2273C16.0909 17.4205 16.0256 17.5824 15.8949 17.7131C15.7642 17.8438 15.6023 17.9091 15.4091 17.9091ZM13.3636 22C12.9886 22 12.6676 21.8665 12.4006 21.5994C12.1335 21.3324 12 21.0114 12 20.6364V11.0909C12 10.8977 12.0653 10.7358 12.196 10.6051C12.3267 10.4744 12.4886 10.4091 12.6818 10.4091C12.875 10.4091 13.0369 10.4744 13.1676 10.6051C13.2983 10.7358 13.3636 10.8977 13.3636 11.0909V20.6364H21.5455V18.5909C21.5455 18.3977 21.6108 18.2358 21.7415 18.1051C21.8722 17.9744 22.0341 17.9091 22.2273 17.9091C22.4205 17.9091 22.5824 17.9744 22.7131 18.1051C22.8438 18.2358 22.9091 18.3977 22.9091 18.5909V20.6364C22.9091 21.0114 22.7756 21.3324 22.5085 21.5994C22.2415 21.8665 21.9205 22 21.5455 22H13.3636Z" fill="#4154F1"/>
</svg>
