<svg width="7" height="13" viewBox="0 0 7 13" fill="none" xmlns="http://www.w3.org/2000/svg">
<path d="M2.39995 6.50005L6.29995 2.60005C6.48328 2.41672 6.57495 2.18338 6.57495 1.90005C6.57495 1.61672 6.48328 1.38338 6.29995 1.20005C6.11662 1.01672 5.88328 0.925049 5.59995 0.925049C5.31662 0.925049 5.08328 1.01672 4.89995 1.20005L0.299951 5.80005C0.199951 5.90005 0.129118 6.00838 0.0874511 6.12505C0.0457844 6.24172 0.0249511 6.36672 0.0249511 6.50005C0.0249511 6.63338 0.0457844 6.75838 0.0874511 6.87505C0.129118 6.99172 0.199951 7.10005 0.299951 7.20005L4.89995 11.8C5.08328 11.9834 5.31662 12.075 5.59995 12.075C5.88328 12.075 6.11662 11.9834 6.29995 11.8C6.48328 11.6167 6.57495 11.3834 6.57495 11.1C6.57495 10.8167 6.48328 10.5834 6.29995 10.4L2.39995 6.50005Z" fill="#2B2D42"/>
</svg>
