<svg width="78" height="69" viewBox="0 0 78 69" fill="none" xmlns="http://www.w3.org/2000/svg">
<path d="M0 9.85714C0 7.24287 1.02723 4.73566 2.85571 2.88709C4.68419 1.03852 7.16414 0 9.75 0H68.25C70.8359 0 73.3158 1.03852 75.1443 2.88709C76.9728 4.73566 78 7.24287 78 9.85714V59.1429C78 61.7571 76.9728 64.2643 75.1443 66.1129C73.3158 67.9615 70.8359 69 68.25 69H9.75C7.16414 69 4.68419 67.9615 2.85571 66.1129C1.02723 64.2643 0 61.7571 0 59.1429V9.85714ZM4.875 54.2143V59.1429C4.875 60.45 5.38862 61.7036 6.30286 62.6279C7.21709 63.5522 8.45707 64.0714 9.75 64.0714H68.25C69.5429 64.0714 70.7829 63.5522 71.6971 62.6279C72.6114 61.7036 73.125 60.45 73.125 59.1429V41.8929L54.7121 32.2969C54.255 32.0654 53.7374 31.9851 53.2326 32.0673C52.7277 32.1496 52.2613 32.3903 51.8993 32.7553L33.813 51.0403L20.8455 42.3069C20.3773 41.9917 19.8157 41.85 19.256 41.9057C18.6962 41.9614 18.1727 42.2111 17.7743 42.6124L4.875 54.2143ZM29.25 22.1786C29.25 20.2179 28.4796 18.3375 27.1082 16.951C25.7369 15.5646 23.8769 14.7857 21.9375 14.7857C19.9981 14.7857 18.1381 15.5646 16.7668 16.951C15.3954 18.3375 14.625 20.2179 14.625 22.1786C14.625 24.1393 15.3954 26.0197 16.7668 27.4061C18.1381 28.7925 19.9981 29.5714 21.9375 29.5714C23.8769 29.5714 25.7369 28.7925 27.1082 27.4061C28.4796 26.0197 29.25 24.1393 29.25 22.1786Z" fill="#012970"/>
</svg>
