<svg width="15" height="15" viewBox="0 0 15 15" fill="none" xmlns="http://www.w3.org/2000/svg">
<path d="M4.30207 5.91177C3.96931 5.91177 3.68445 5.79328 3.44748 5.55632C3.21052 5.31935 3.09203 5.03449 3.09203 4.70173C3.09203 4.36897 3.21052 4.08411 3.44748 3.84714C3.68445 3.61017 3.96931 3.49169 4.30207 3.49169C4.63483 3.49169 4.91969 3.61017 5.15666 3.84714C5.39362 4.08411 5.51211 4.36897 5.51211 4.70173C5.51211 5.03449 5.39362 5.31935 5.15666 5.55632C4.91969 5.79328 4.63483 5.91177 4.30207 5.91177ZM3.09203 13.777C2.92061 13.777 2.77692 13.719 2.66096 13.6031C2.545 13.4871 2.48701 13.3434 2.48701 13.172C2.15425 13.172 1.86939 13.0535 1.63243 12.8165C1.39546 12.5796 1.27698 12.2947 1.27698 11.962V8.93686C1.27698 8.76544 1.33496 8.62175 1.45092 8.50578C1.56688 8.38982 1.71057 8.33184 1.882 8.33184H3.09203V7.87808C3.09203 7.4949 3.22312 7.17222 3.4853 6.91005C3.74747 6.64787 4.07015 6.51678 4.45333 6.51678C4.655 6.51678 4.84155 6.55712 5.01297 6.63779C5.18439 6.71846 5.34069 6.82938 5.48186 6.97055L6.32888 7.90833C6.40955 7.989 6.4877 8.06462 6.56333 8.13521C6.63895 8.20579 6.72214 8.27134 6.8129 8.33184H10.9573V3.40094C10.9573 3.25977 10.9069 3.13876 10.806 3.03793C10.7052 2.93709 10.5842 2.88667 10.443 2.88667C10.3825 2.88667 10.3245 2.89928 10.2691 2.92449C10.2136 2.9497 10.1607 2.98751 10.1102 3.03793L9.35398 3.7942C9.40439 3.96562 9.41448 4.13452 9.38423 4.3009C9.35398 4.46728 9.29347 4.62106 9.20272 4.76223L7.53892 3.06818C7.68009 2.97743 7.83135 2.91944 7.99268 2.89424C8.15402 2.86903 8.31536 2.88667 8.4767 2.94717L9.23297 2.1909C9.39431 2.02956 9.57834 1.90352 9.78505 1.81276C9.99177 1.72201 10.2111 1.67664 10.443 1.67664C10.927 1.67664 11.3354 1.84302 11.6682 2.17578C12.0009 2.50854 12.1673 2.91692 12.1673 3.40094V8.33184H12.7723C12.9438 8.33184 13.0874 8.38982 13.2034 8.50578C13.3194 8.62175 13.3773 8.76544 13.3773 8.93686V11.962C13.3773 12.2947 13.2589 12.5796 13.0219 12.8165C12.7849 13.0535 12.5001 13.172 12.1673 13.172C12.1673 13.3434 12.1093 13.4871 11.9934 13.6031C11.8774 13.719 11.7337 13.777 11.5623 13.777H3.09203Z" fill="#1A2130"/>
</svg>
